<?xml version="1.0" encoding="utf-8"?>
<!-- Generator: Adobe Illustrator 13.0.2, SVG Export Plug-In . SVG Version: 6.00 Build 14948)  -->
<!DOCTYPE svg PUBLIC "-//W3C//DTD SVG 1.1//EN" "http://www.w3.org/Graphics/SVG/1.1/DTD/svg11.dtd">
<svg version="1.1" id="Layer_1" xmlns="http://www.w3.org/2000/svg" xmlns:xlink="http://www.w3.org/1999/xlink" x="0px" y="0px"
	 width="240.939px" height="155.91px" viewBox="0 0 240.939 155.91" enable-background="new 0 0 240.939 155.91"
	 xml:space="preserve">
<g opacity="0.15">
	<g>
		<path fill="#2BA9E0" d="M117.719,83.729c-9.129,0-16.529,7.398-16.529,16.525s7.4,16.527,16.529,16.527
			c9.125,0,16.524-7.4,16.524-16.527S126.845,83.729,117.719,83.729z"/>
	</g>
	<g>
		<path fill="#2BA9E0" d="M138.269,80.576c4.896,5.113,7.911,12.041,7.911,19.679c0,9.672-4.83,18.213-12.204,23.354
			c13.629-4.205,24.906-14.449,29.954-26.858c6.981-17.165,0.481-30.085-10.43-41.798c0.332,1.517,0.519,3.088,0.519,4.704
			C154.019,69.591,147.359,77.965,138.269,80.576z"/>
	</g>
	<g>
		<path fill="#2BA9E0" d="M119.606,59.657c0,6.982,5.662,12.642,12.644,12.642c6.98,0,12.641-5.66,12.641-12.642
			c0-6.98-5.66-12.64-12.641-12.64S119.606,52.677,119.606,59.657z"/>
	</g>
	<g>
		<path fill="#2BA9E0" d="M95.948,118.583c-4.176-4.953-6.691-11.344-6.691-18.328c0-14.568,10.949-26.571,25.065-28.251
			c-2.422-3.51-3.845-7.762-3.845-12.347c0-12.021,9.746-21.769,21.771-21.769c0.993,0,1.969,0.074,2.924,0.202
			c-7.122-6.146-14.228-12.38-19.837-19.195c2.865,29.846-27.182,19.001-38.29,46.503C69.593,83.852,76.311,106.662,95.948,118.583z
			"/>
	</g>
</g>
</svg>
